<svg xmlns="http://www.w3.org/2000/svg" viewBox="0 0 383.24 98.52"><defs><style>.cls-1{font-size:57.38px;font-family:TwCenMT-Regular, Tw Cen MT;}.cls-1,.cls-2,.cls-3{fill:#fff;}.cls-2{font-size:46.85px;stroke:#fff;stroke-miterlimit:10;font-family:MonotypeCorsiva, Monotype Corsiva;}</style></defs><title>Recurso 3</title><g id="Capa_2" data-name="Capa 2"><g id="Capa_1-2" data-name="Capa 1"><text class="cls-1" transform="translate(0 46.54) scale(1.14 1)">ANGEL CAKES</text><text class="cls-2" transform="translate(157.31 83.66) scale(0.84 1)">ake</text><path class="cls-3" d="M162.42,63.31c.85-6.42-6.15-7-6.15-7,1.2-1.38,4.5-.85,4.5-.85l.22-1.25a8.81,8.81,0,0,0-7.62,1.47c-7.62-.66-11.81,1-14.17,5.31s.4,5.84,2.27,6.46,2.32-1.6,2.54-2.36-1.2-.4-1.2-.4c-2.94.71-2.14-2.9-2.14-2.9,2.27-5.79,11.68-4.37,11.68-4.37-2.28,2.81-3.39,4.1-4.6,8.56s-.62,1.56-2.18,2.94a1.46,1.46,0,0,0-.09,2.45l-4,7.31s-3,5-6,3.62-8-1.79-7.71,1.69,9,1.25,9,1.25c13.37,1.25,20.19-.94,22.6-6.87s-3-7.62-3-7.62S161.57,69.73,162.42,63.31ZM133.89,83.77c-1.47.94-4.23,1.21-3.65-.31s3.65,0,3.65,0Zm21-6c-1.38,5.62-7.8,6-12,6.24s-1.56-1-1.56-1a27.68,27.68,0,0,0,7.8-10.34C150.34,71.87,156.31,72.18,154.93,77.8Zm3.3-12.3s-1.87,5.26-7.76,2.76c0,0,2.31-7.76,4.7-10.07C155.17,58.19,161,60.06,158.23,65.5Z"/><path class="cls-3" d="M238.07,67.59s1.6-2.9-1.43-3.3c0,0-1.88-.62-2.59,2.28s-5.26,15.64-9.05,14,3.88-12.31,3.88-12.31,2.67-2.85.49-3.83-3.57,2.5-6.46,7.76l-.85,1.38s-4.95.8-4.37-1.47,3.84-3.08,3.84-3.08,1.91-.62,0-2.9-3.34-2.09-5.88,1.12-2.37,2.85-2.37,2.85,3-4.59,1.34-5.35-2.63-.84-2.32,0c0,0-5.66,9.59-6.68,15.6,0,0-.4,3.17,1.82,3.57s.14-2.85,3.3-7.67a36.85,36.85,0,0,1,4.64-6s-2.14,5.12,2,4.63l4.19-.52S219,80.65,220.68,83s6.55.13,8.73-3.08a6.29,6.29,0,0,1-3.29,5.53c-3.44,1.78-7.22,5.66-4.46,8.56s8.91-9.32,9.09-10,.85,1.43,4.1-1.43,3.52-4.19,3-3.92-6.91,6.2-5.66,1.78S238.07,67.59,238.07,67.59Zm-16,23.94c.22-2.14,3.16-4.19,3.16-4.19C226.34,90.55,221.84,93.67,222.06,91.53Z"/><rect class="cls-3" x="3.89" y="69.95" width="130" height="2.4"/><rect class="cls-3" x="240.52" y="69.95" width="130" height="2.4"/></g></g></svg>